<svg viewBox="0 0 900 480" xmlns="http://www.w3.org/2000/svg" font-family="system-ui, -apple-system, sans-serif">
  <defs>
    <filter id="s">
      <feDropShadow dx="0" dy="2" stdDeviation="3" flood-color="#0F172A" flood-opacity="0.10"/>
    </filter>
  </defs>

  <!-- Background -->
  <rect width="900" height="480" fill="#F8FAFC" rx="12"/>

  <!-- Title -->
  <text x="450" y="36" text-anchor="middle" font-size="18" font-weight="700" fill="#0F172A">Wave Execution Model</text>
  <text x="450" y="56" text-anchor="middle" font-size="13" fill="#64748B">Parallel workstreams with integration gates between each wave</text>

  <!-- ── Column headers (waves) ── -->
  <rect x="180" y="72" width="148" height="32" rx="6" fill="#1E3A5F"/>
  <text x="254" y="93" text-anchor="middle" font-size="12" font-weight="600" fill="#FFFFFF">Wave 1 · Weeks 1-2</text>

  <rect x="340" y="72" width="148" height="32" rx="6" fill="#1E3A5F"/>
  <text x="414" y="93" text-anchor="middle" font-size="12" font-weight="600" fill="#FFFFFF">Wave 2 · Weeks 3-5</text>

  <rect x="500" y="72" width="148" height="32" rx="6" fill="#1E3A5F"/>
  <text x="574" y="93" text-anchor="middle" font-size="12" font-weight="600" fill="#FFFFFF">Wave 3 · Weeks 6-8</text>

  <rect x="660" y="72" width="148" height="32" rx="6" fill="#065F46"/>
  <text x="734" y="93" text-anchor="middle" font-size="12" font-weight="600" fill="#FFFFFF">Wave 4 · Weeks 9-10</text>

  <!-- ── Row labels ── -->
  <!-- WS labels column -->
  <text x="30"  y="148" font-size="11" font-weight="600" fill="#334155">WS1</text>
  <text x="44"  y="162" font-size="10" fill="#64748B">Frontend</text>

  <text x="30"  y="208" font-size="11" font-weight="600" fill="#334155">WS2</text>
  <text x="44"  y="222" font-size="10" fill="#64748B">Types</text>

  <text x="30"  y="268" font-size="11" font-weight="600" fill="#334155">WS4</text>
  <text x="44"  y="282" font-size="10" fill="#64748B">Planner</text>

  <text x="30"  y="328" font-size="11" font-weight="600" fill="#334155">WS5</text>
  <text x="44"  y="342" font-size="10" fill="#64748B">AWS</text>

  <text x="30"  y="388" font-size="11" font-weight="600" fill="#334155">WS8</text>
  <text x="44"  y="402" font-size="10" fill="#64748B">QA</text>

  <!-- Horizontal guide lines -->
  <line x1="170" y1="130" x2="870" y2="130" stroke="#E2E8F0" stroke-width="1"/>
  <line x1="170" y1="190" x2="870" y2="190" stroke="#E2E8F0" stroke-width="1"/>
  <line x1="170" y1="250" x2="870" y2="250" stroke="#E2E8F0" stroke-width="1"/>
  <line x1="170" y1="310" x2="870" y2="310" stroke="#E2E8F0" stroke-width="1"/>
  <line x1="170" y1="370" x2="870" y2="370" stroke="#E2E8F0" stroke-width="1"/>
  <line x1="170" y1="430" x2="870" y2="430" stroke="#E2E8F0" stroke-width="1"/>

  <!-- ── WS1 Frontend bars ── -->
  <rect x="182" y="118" width="144" height="24" rx="5" fill="#0E7490"/>
  <text x="254" y="135" text-anchor="middle" font-size="10" fill="#FFFFFF">Parser MVP · AST spans</text>

  <rect x="342" y="118" width="144" height="24" rx="5" fill="#0891B2" opacity="0.7"/>
  <text x="414" y="135" text-anchor="middle" font-size="10" fill="#FFFFFF">Phase blocks · Modules</text>

  <rect x="502" y="118" width="144" height="24" rx="5" fill="#0891B2" opacity="0.5"/>
  <text x="574" y="135" text-anchor="middle" font-size="10" fill="#FFFFFF">Resource sections</text>

  <rect x="662" y="118" width="144" height="24" rx="5" fill="#0891B2" opacity="0.35"/>
  <text x="734" y="135" text-anchor="middle" font-size="10" fill="#0E4459">MVP-complete subset</text>

  <!-- ── WS2 Types bars ── -->
  <rect x="182" y="178" width="144" height="24" rx="5" fill="#0E7490"/>
  <text x="254" y="195" text-anchor="middle" font-size="10" fill="#FFFFFF">Symbol table · Base types</text>

  <rect x="342" y="178" width="144" height="24" rx="5" fill="#0891B2" opacity="0.7"/>
  <text x="414" y="195" text-anchor="middle" font-size="10" fill="#FFFFFF">Collection types · Wire</text>

  <rect x="502" y="178" width="144" height="24" rx="5" fill="#0891B2" opacity="0.5"/>
  <text x="574" y="195" text-anchor="middle" font-size="10" fill="#FFFFFF">Refinement integration</text>

  <rect x="662" y="178" width="144" height="24" rx="5" fill="#0891B2" opacity="0.35"/>
  <text x="734" y="195" text-anchor="middle" font-size="10" fill="#0E4459">Policy primitives</text>

  <!-- ── WS4 Planner bars (starts wave 2) ── -->
  <rect x="182" y="238" width="144" height="24" rx="5" fill="#E2E8F0"/>
  <text x="254" y="255" text-anchor="middle" font-size="10" fill="#94A3B8">–</text>

  <rect x="342" y="238" width="144" height="24" rx="5" fill="#047857"/>
  <text x="414" y="255" text-anchor="middle" font-size="10" fill="#FFFFFF">Plan IR · Dep graph</text>

  <rect x="502" y="238" width="144" height="24" rx="5" fill="#059669" opacity="0.7"/>
  <text x="574" y="255" text-anchor="middle" font-size="10" fill="#FFFFFF">Delete reconciliation</text>

  <rect x="662" y="238" width="144" height="24" rx="5" fill="#059669" opacity="0.45"/>
  <text x="734" y="255" text-anchor="middle" font-size="10" fill="#064E3B">Richer op metadata</text>

  <!-- ── WS5 AWS Provider bars (starts wave 3) ── -->
  <rect x="182" y="298" width="144" height="24" rx="5" fill="#E2E8F0"/>
  <text x="254" y="315" text-anchor="middle" font-size="10" fill="#94A3B8">–</text>

  <rect x="342" y="298" width="144" height="24" rx="5" fill="#E2E8F0"/>
  <text x="414" y="315" text-anchor="middle" font-size="10" fill="#94A3B8">–</text>

  <rect x="502" y="298" width="144" height="24" rx="5" fill="#C2410C"/>
  <text x="574" y="315" text-anchor="middle" font-size="10" fill="#FFFFFF">S3·IAM·VPC·EC2·SG</text>

  <rect x="662" y="298" width="144" height="24" rx="5" fill="#EA580C" opacity="0.7"/>
  <text x="734" y="315" text-anchor="middle" font-size="10" fill="#FFFFFF">Verify hardening</text>

  <!-- ── WS8 QA bars (all waves) ── -->
  <rect x="182" y="358" width="144" height="24" rx="5" fill="#6D28D9"/>
  <text x="254" y="375" text-anchor="middle" font-size="10" fill="#FFFFFF">Parser snapshots</text>

  <rect x="342" y="358" width="144" height="24" rx="5" fill="#6D28D9" opacity="0.8"/>
  <text x="414" y="375" text-anchor="middle" font-size="10" fill="#FFFFFF">Plan snapshots</text>

  <rect x="502" y="358" width="144" height="24" rx="5" fill="#6D28D9" opacity="0.65"/>
  <text x="574" y="375" text-anchor="middle" font-size="10" fill="#FFFFFF">Smoke: apply gate</text>

  <rect x="662" y="358" width="144" height="24" rx="5" fill="#7C3AED" opacity="0.5"/>
  <text x="734" y="375" text-anchor="middle" font-size="10" fill="#3B0764">Verify-gated smoke</text>

  <!-- ── Integration gate markers ── -->
  <!-- Gate 1 -->
  <line x1="330" y1="108" x2="330" y2="440" stroke="#F59E0B" stroke-width="1.5" stroke-dasharray="6,4"/>
  <rect x="291" y="440" width="78" height="22" rx="5" fill="#FEF9C3" stroke="#FDE047" stroke-width="1"/>
  <text x="330" y="456" text-anchor="middle" font-size="10" font-weight="600" fill="#713F12">stratc check ✓</text>

  <!-- Gate 2 -->
  <line x1="490" y1="108" x2="490" y2="440" stroke="#F59E0B" stroke-width="1.5" stroke-dasharray="6,4"/>
  <rect x="449" y="440" width="82" height="22" rx="5" fill="#FEF9C3" stroke="#FDE047" stroke-width="1"/>
  <text x="490" y="456" text-anchor="middle" font-size="10" font-weight="600" fill="#713F12">stratc plan ✓</text>

  <!-- Gate 3 -->
  <line x1="650" y1="108" x2="650" y2="440" stroke="#F59E0B" stroke-width="1.5" stroke-dasharray="6,4"/>
  <rect x="609" y="440" width="82" height="22" rx="5" fill="#FEF9C3" stroke="#FDE047" stroke-width="1"/>
  <text x="650" y="456" text-anchor="middle" font-size="10" font-weight="600" fill="#713F12">stratc apply ✓</text>

  <!-- Wave 4 GO badge -->
  <rect x="810" y="440" width="60" height="22" rx="5" fill="#065F46"/>
  <text x="840" y="456" text-anchor="middle" font-size="11" font-weight="700" fill="#FFFFFF">GO ✓</text>
</svg>
